# xmcd
#
# Track frame offsets: 
#        150
#        15769
#        31860
#        47811
#        69783
#
# Disc length: 1238 seconds
#
# Revision: 0
# Processed by: cddbd v1.5.2PL0 Copyright (c) Steve Scherf et al.
# Submitted via: ExactAudioCopy v0.99pb5
#
DISCID=2b04d405
DTITLE=Mike Willis - Confluence
DYEAR=2010
DGENRE=Country
TTITLE0=You Are
TTITLE1=Okay with the Way
TTITLE2=The Last Thing I Wanna Do
TTITLE3=Reason to Run
TTITLE4=When You Don't Know What to Do
EXTD=
EXTT0=
EXTT1=
EXTT2=
EXTT3=
EXTT4=
PLAYORDER=
